<?xml version="1.0" encoding="UTF-8"?>
<svg width="40px" height="40px" viewBox="0 0 40 40" version="1.1" xmlns="http://www.w3.org/2000/svg" xmlns:xlink="http://www.w3.org/1999/xlink">
    <!-- Generator: Sketch 46.2 (44496) - http://www.bohemiancoding.com/sketch -->
    <title>Group</title>
    <desc>Created with Sketch.</desc>
    <defs></defs>
    <g id="Page-2" stroke="none" stroke-width="1" fill="none" fill-rule="evenodd">
        <g id="单条添加-相似问题编辑态-copy-6" transform="translate(-196.000000, -379.000000)">
            <g id="Group-3" transform="translate(144.000000, 363.000000)">
                <g id="Group" transform="translate(52.000000, 16.000000)">
                    <circle id="Oval" fill="#0078D6" cx="20" cy="20" r="20"></circle>
                    <g id="icon-开发者信息" transform="translate(10.000000, 10.000000)" fill-rule="nonzero" fill="#FFFFFF">
                        <path d="M10.2175167,10.2230775 C13.0383667,10.2230775 15.3251275,7.93647465 15.3251275,5.11544037 C15.3251275,2.2943271 13.0383667,0.00748729754 10.2175167,0.00748729754 C7.39635081,0.00748729754 5.10966894,2.29432713 5.10966894,5.11544037 C5.10966894,7.93647468 7.39635081,10.2230775 10.2175167,10.2230775 Z M16.636143,13.2011504 C14.8820497,12.1373423 12.6489953,11.5001316 10.2175167,11.5001316 C4.57557979,11.5001316 0.00174218568,14.9303387 0.00174218568,19.1614821 C0.00174218568,20.0570891 0.206695314,20.9168128 0.583271999,21.7157219 L11.6011675,21.7157219 C11.5314545,21.3003134 11.4945971,20.8737423 11.4945971,20.4385362 C11.4945971,17.0900734 13.642985,14.2434759 16.636143,13.2011504 Z" id="Shape"></path>
                    </g>
                    <path d="M25.4744092,26.4702454 L23,28.8106619 L25.4744092,31.1069631 L26.0930314,30.4445975 L24.2813862,28.8106619 L26.0930314,27.1326109 L25.4744092,26.4702454 Z M30.6441754,31.1069631 L33.1185051,28.8106619 L30.6441754,26.4702454 L30.0255532,27.1326109 L31.8371984,28.8106619 L30.0255532,30.4445975 L30.6441754,31.1069631 L30.6441754,31.1069631 Z M26.5640368,31.7402363 L28.3305857,26 L29.1754051,26.2596842 L27.4088562,32 L26.5640368,31.7402363 L26.5640368,31.7402363 Z" id="Shape" stroke="#FFFFFF" stroke-width="0.5" fill="#FFFFFF" fill-rule="nonzero" stroke-linecap="round" stroke-linejoin="round"></path>
                </g>
            </g>
        </g>
    </g>
</svg>