<?xml version="1.0" encoding="UTF-8"?>
<svg width="400px" height="400px" viewBox="0 0 400 400" version="1.1" xmlns="http://www.w3.org/2000/svg" xmlns:xlink="http://www.w3.org/1999/xlink">
    <!-- Generator: Sketch 46 (44423) - http://www.bohemiancoding.com/sketch -->
    <title>Sohu bw</title>
    <desc>Created with Sketch.</desc>
    <defs>
        <linearGradient x1="54.6830186%" y1="2.25918756%" x2="51.3393139%" y2="54.7287302%" id="linearGradient-1">
            <stop stop-color="#FFFFFF" offset="0%"></stop>
            <stop stop-color="#FFFFFF" offset="100%"></stop>
        </linearGradient>
    </defs>
    <g id="Page-1" stroke="none" stroke-width="1" fill="none" fill-rule="evenodd">
        <g id="Sohu-bw">
            <circle id="Oval" fill="#8C8C8C" cx="200" cy="200" r="200"></circle>
            <g id="Group" transform="translate(60.000000, 105.000000)" fill-rule="nonzero">
                <path d="M279.991113,142.334884 C278.626903,142.453505 275.457869,143.330459 275.457869,143.330459 C265.527098,145.995213 255.104872,145.241118 244.936847,139.280372 C214.479375,121.410846 207.789662,104.896997 188.237397,68.7173484 C166.973515,29.3815128 147.128919,8.41087346 107.575301,2.02224232 C68.6232919,-4.25624 32.5056195,19.3960993 9.76737342,53.5464677 C8.26758972,58.7192254 5.64508659,70.9542166 13.249922,73.648626 C24.4855897,72.5725568 40.962027,72.6445772 60.815096,77.7792065 C97.3098327,87.1926935 120.204836,125.155905 138.630145,150.028355 C142.383841,155.099436 146.442577,159.768052 150.759751,164.110457 C162.838518,175.362581 183.195751,188.478763 212.860964,189.025271 C267.543756,187.614519 280.389361,143.936278 279.991113,142.334884 Z" id="Shape" fill="#D5D5D5"></path>
                <path d="M125.34296,122.310469 L125.363177,122.472202 C125.363177,122.472202 126.790469,124.4413 125.34296,122.310469 Z" id="Shape" fill="#030202"></path>
                <g id="Shape">
                    <g fill="#FFFFFF">
                        <path d="M122.72663,127.954531 L122.752066,128.133059 C122.752066,128.133059 124.35034,130.045861 122.72663,127.954531 Z"></path>
                        <path d="M152.657165,91.7388133 L142.363774,52.7601592 L185.983501,64.0031843 C185.983501,64.0031843 176.139492,43.5532056 157.752987,25.0075275 C151.868627,19.0778413 137.111092,6.04103305 107.799517,1.63733778 C86.9795657,-0.590013885 70.195573,1.04649449 46.7471609,15.90259 C28.7252481,28.2337869 12.4923843,46.4096566 1.05010184,68.7044265 C0.558325341,71.2208238 0.969552239,73.9880107 4.74266501,74.6808701 C16.7360763,72.3344997 32.3160644,71.696899 58.8084035,77.061246 C72.8494703,80.5170416 92.3170365,89.7112432 112.975889,115.708348 C118.911122,123.104515 121.586217,126.48805 122.730869,127.954531 L116.770199,84.1811201 L152.657165,91.7388133 Z"></path>
                    </g>
                    <path d="M35.6397952,32.9520318 C61.0849895,5.17389614 133.41005,-14.6554846 177.08489,56.7940461 C152.292572,50.1289938 144.233372,47.7273646 144.233372,47.7273646 C144.233372,47.7273646 91.3122862,8.84222531 35.6397952,32.9520318 Z" fill="url(#linearGradient-1)"></path>
                </g>
            </g>
        </g>
    </g>
</svg>