<?xml version="1.0" encoding="UTF-8"?>
<svg width="400px" height="400px" viewBox="0 0 400 400" version="1.1" xmlns="http://www.w3.org/2000/svg" xmlns:xlink="http://www.w3.org/1999/xlink">
    <!-- Generator: Sketch 46 (44423) - http://www.bohemiancoding.com/sketch -->
    <title>WeChat bw</title>
    <desc>Created with Sketch.</desc>
    <defs></defs>
    <g id="Page-1" stroke="none" stroke-width="1" fill="none" fill-rule="evenodd">
        <g id="WeChat-bw">
            <circle id="Oval" fill="#8C8C8C" cx="200" cy="200" r="200"></circle>
            <g id="Group" transform="translate(58.000000, 77.000000)" fill-rule="nonzero" fill="#FFFFFF">
                <path d="M194.225352,78.8501478 C168.27488,80.1987836 145.709019,88.0240697 127.388391,105.703459 C108.878062,123.565154 100.428323,145.452501 102.737961,172.585134 C92.5948454,171.335647 83.356293,169.960358 74.0652245,169.182094 C70.8563816,168.913433 67.0484261,169.295103 64.3304482,170.820713 C55.3083909,175.884761 46.6593054,181.602337 36.4079418,187.97664 C38.2888768,179.513817 39.5063937,172.10325 41.6616987,164.975203 C43.2468285,159.736313 42.5126744,156.820488 37.6608267,153.408919 C6.50911403,131.531168 -6.62206274,98.7897016 3.20488468,65.0812692 C12.2966062,33.8973976 34.6234651,14.9855789 64.9606418,5.12721108 C106.368005,-8.32716357 152.902658,5.39693824 178.081464,38.0989579 C187.175329,49.9115151 192.751685,63.1697245 194.225352,78.8501478 Z M74.7918763,68.3467802 C75.0308783,62.1814357 69.6602999,56.6269751 63.2811973,56.4414711 C56.7499052,56.2506364 51.378255,61.2155352 51.1874821,67.6175574 C50.9945657,74.1059349 55.9835984,79.3053791 62.5620478,79.471693 C69.0836942,79.6358748 74.5507308,74.6645793 74.7918763,68.3467802 Z M137.104948,56.4372066 C130.702266,56.5544793 125.292033,61.9788737 125.405639,68.168739 C125.522461,74.5846207 130.829805,79.6038913 137.413614,79.5249988 C144.01457,79.4461063 149.020751,74.3735298 148.958589,67.8222515 C148.903929,61.3914442 143.620163,56.3188678 137.104948,56.4372066 Z" id="Shape"></path>
                <path d="M252.80573,239.866025 C244.53802,236.217649 236.953984,230.744016 228.879299,229.908331 C220.835886,229.075851 212.380544,233.674259 203.9651,234.527042 C178.331641,237.126003 155.367099,230.046187 136.431272,212.692355 C100.417616,179.681709 105.563502,129.066099 147.229869,102.014254 C184.261488,77.9717322 238.570431,85.9866186 264.679442,119.346713 C287.4639,148.45678 284.786357,187.099219 256.971396,211.554241 C248.922591,218.63192 246.026143,224.456071 251.190362,233.786467 C252.143623,235.509133 252.252536,237.690251 252.80573,239.866025 L252.80573,239.866025 Z M158.693808,149.566041 C163.957235,149.571384 168.291124,145.489135 168.490619,140.337166 C168.700897,134.882769 164.27427,130.307872 158.762823,130.28543 C153.306372,130.260851 148.735246,134.899867 148.925035,140.273047 C149.104042,145.406849 153.468124,149.559629 158.693808,149.566041 Z M219.36286,130.306803 C214.255794,130.271538 209.916514,134.414699 209.708392,139.528197 C209.48733,144.996487 213.775929,149.48696 219.236693,149.500853 C224.518452,149.517951 228.691666,145.559666 228.883613,140.351059 C229.088499,134.869945 224.797744,130.344206 219.36286,130.306803 L219.36286,130.306803 Z" id="Shape"></path>
            </g>
        </g>
    </g>
</svg>