<?xml version="1.0" encoding="UTF-8"?>
<svg width="400px" height="400px" viewBox="0 0 400 400" version="1.1" xmlns="http://www.w3.org/2000/svg" xmlns:xlink="http://www.w3.org/1999/xlink">
    <!-- Generator: Sketch 46 (44423) - http://www.bohemiancoding.com/sketch -->
    <title>Weibo bw</title>
    <desc>Created with Sketch.</desc>
    <defs></defs>
    <g id="Page-1" stroke="none" stroke-width="1" fill="none" fill-rule="evenodd">
        <g id="Weibo-bw">
            <circle id="Oval" fill="#8C8C8C" cx="200" cy="200" r="200"></circle>
            <g id="79c9246517e13fcec5175d5eee7e60cf" transform="translate(60.000000, 88.000000)" fill-rule="nonzero" fill="#FFFFFF">
                <path d="M207.418999,109.226465 C196.503467,107.111217 201.818359,101.222826 201.818359,101.222826 C201.818359,101.222826 212.47672,83.61482 199.703832,70.7804133 C183.873452,54.9160576 145.411916,72.781323 145.411916,72.781323 C130.695949,77.354831 134.582108,70.69466 136.66806,59.3752278 C136.66806,46.0263015 132.096109,23.4160215 92.977355,36.7649479 C53.9157501,50.2282119 20.3690609,97.2210062 20.3690609,97.2210062 C-2.97646304,128.463782 0.138178462,152.617621 0.138178462,152.617621 C5.96741577,205.898989 62.4024338,220.534214 106.321737,223.99293 C152.527015,227.623152 214.876994,208.014236 233.793441,167.738782 C252.681312,127.377574 218.334532,111.398881 207.418999,109.226465 L207.418999,109.226465 Z M109.7507,208.928938 C63.8597432,211.07277 26.7983667,188.033724 26.7983667,157.334051 C26.7983667,126.605795 63.8597432,101.937436 109.7507,99.8221888 C155.641656,97.7069414 192.788757,116.658415 192.788757,147.329503 C192.788757,178.057759 155.641656,206.842275 109.7507,208.928938 L109.7507,208.928938 Z M100.578223,120.088546 C54.4586693,125.491002 59.7735621,168.82499 59.7735621,168.82499 C59.7735621,168.82499 59.2877923,182.545514 72.146404,189.548698 C99.1494886,204.212508 126.92409,195.322752 140.982839,177.143058 C155.013013,158.934779 146.783501,114.714674 100.578223,120.088546 L100.578223,120.088546 Z M88.9483234,180.916202 C80.3473409,181.945241 73.3751158,176.942967 73.3751158,169.739692 C73.3751158,162.536417 79.5472495,154.990129 88.1768067,154.104011 C98.0636503,153.132141 104.521531,158.87761 104.521531,166.10947 C104.521531,173.28416 97.5493059,179.915747 88.9483234,180.916202 L88.9483234,180.916202 Z M116.151431,157.677064 C113.236812,159.878065 109.636401,159.563637 108.121942,156.933869 C106.521759,154.389856 107.093253,150.273698 110.065021,148.129867 C113.46541,145.585853 117.037246,146.300463 118.58028,148.873062 C120.094738,151.502829 119.0089,155.418895 116.151431,157.677064 L116.151431,157.677064 Z M229.878708,90.4750819 C233.593418,90.4750819 236.765209,87.7309772 237.279553,84.1293397 C237.336703,83.8434954 237.393852,83.61482 237.393852,83.3289758 C243.023066,32.5058686 195.903398,41.281287 195.903398,41.281287 C191.731493,41.281287 188.359679,44.6828335 188.359679,48.9133284 C188.359679,53.0866544 191.702918,56.4882009 195.903398,56.4882009 C229.764409,48.9990817 222.306414,82.9573782 222.306414,82.9573782 C222.249265,87.1021198 225.678228,90.4750819 229.878708,90.4750819 L229.878708,90.4750819 Z M224.363792,1.80619643 C208.047642,-2.02411648 191.274298,1.29167678 186.616623,2.17779395 C186.245152,2.20637838 185.902256,2.54939147 185.559359,2.60656032 C185.387911,2.63514475 185.302187,2.8066513 185.302187,2.8066513 C180.644512,4.12153483 177.272698,8.40919854 177.272698,13.4972261 C177.272698,19.5571242 182.158971,24.5308141 188.273955,24.5308141 C188.273955,24.5308141 194.217491,23.7304502 198.217948,22.1583068 C202.218405,20.5575791 235.965117,20.957761 252.738462,49.1991726 C261.853789,69.8085429 256.738919,83.5862356 256.110276,85.8158207 C256.110276,85.8158207 253.910024,91.1611081 253.910024,96.4492267 C253.910024,102.537709 258.796297,106.368022 264.854132,106.368022 C269.911852,106.368022 274.169481,105.681996 275.426768,97.0780841 L275.483917,97.0780841 C293.543123,36.8792856 253.538553,8.60928952 224.363792,1.80619643 L224.363792,1.80619643 Z" id="Shape"></path>
            </g>
        </g>
    </g>
</svg>